<svg width="71" height="24" viewBox="0 0 71 24" fill="none" xmlns="http://www.w3.org/2000/svg">
<path d="M64.4979 8.11367L36.4323 0.916L7.37437 8.113C0.973633 9.53263 0.973633 9.52729 0.973633 11.2719V20.6309C0.973633 23.7898 0.973633 23.7898 7.37437 23.7898H64.3651C70.7659 23.7898 70.7659 23.7898 70.7659 20.6309V11.2719C70.7659 9.52729 70.7659 9.53181 64.4979 8.11367Z" fill="url(#paint0_linear_104_27)"/>
<path d="M25.0201 11.0254H28.3776C29.0338 11.0254 29.6041 11.1231 30.0885 11.3184C30.5729 11.5137 30.9459 11.8028 31.2076 12.1856C31.4733 12.5684 31.6061 13.0411 31.6061 13.6036C31.6061 14.0918 31.5299 14.5 31.3776 14.8282C31.2252 15.1563 31.0123 15.4278 30.7389 15.6426C30.4694 15.8536 30.1549 16.0274 29.7955 16.1641L29.1217 16.545H26.3033L26.2916 14.9571H28.3776C28.6393 14.9571 28.8561 14.9102 29.028 14.8165C29.1998 14.7227 29.3287 14.5899 29.4147 14.418C29.5045 14.2422 29.5494 14.0332 29.5494 13.7911C29.5494 13.545 29.5045 13.334 29.4147 13.1582C29.3248 12.9825 29.192 12.8477 29.0162 12.754C28.8444 12.6602 28.6315 12.6133 28.3776 12.6133H27.0768V19.5567H25.0201V11.0254ZM29.6901 19.5567L27.8033 15.7832L29.983 15.7715L31.8932 19.4688V19.5567H29.6901ZM32.8084 16.4512V16.3282C32.8084 15.8633 32.8748 15.4356 33.0076 15.045C33.1405 14.6504 33.3358 14.3086 33.5936 14.0196C33.8514 13.7305 34.1698 13.5059 34.5487 13.3457C34.9276 13.1817 35.3651 13.0997 35.8612 13.0997C36.3612 13.0997 36.8006 13.1817 37.1795 13.3457C37.5623 13.5059 37.8826 13.7305 38.1405 14.0196C38.3983 14.3086 38.5936 14.6504 38.7264 15.045C38.8592 15.4356 38.9256 15.8633 38.9256 16.3282V16.4512C38.9256 16.9122 38.8592 17.3399 38.7264 17.7344C38.5936 18.125 38.3983 18.4668 38.1405 18.7598C37.8826 19.0489 37.5643 19.2735 37.1854 19.4336C36.8065 19.5938 36.369 19.6739 35.8729 19.6739C35.3768 19.6739 34.9373 19.5938 34.5545 19.4336C34.1717 19.2735 33.8514 19.0489 33.5936 18.7598C33.3358 18.4668 33.1405 18.125 33.0076 17.7344C32.8748 17.3399 32.8084 16.9122 32.8084 16.4512ZM34.783 16.3282V16.4512C34.783 16.6895 34.8006 16.9122 34.8358 17.1192C34.8709 17.3262 34.9295 17.5079 35.0115 17.6641C35.0936 17.8165 35.2049 17.9356 35.3455 18.0215C35.4862 18.1075 35.6619 18.1504 35.8729 18.1504C36.0799 18.1504 36.2518 18.1075 36.3885 18.0215C36.5291 17.9356 36.6405 17.8165 36.7225 17.6641C36.8045 17.5079 36.8631 17.3262 36.8983 17.1192C36.9334 16.9122 36.951 16.6895 36.951 16.4512V16.3282C36.951 16.0977 36.9334 15.8809 36.8983 15.6778C36.8631 15.4707 36.8045 15.2891 36.7225 15.1329C36.6405 14.9727 36.5291 14.8477 36.3885 14.7579C36.2479 14.668 36.0721 14.6231 35.8612 14.6231C35.6541 14.6231 35.4803 14.668 35.3397 14.7579C35.203 14.8477 35.0936 14.9727 35.0115 15.1329C34.9295 15.2891 34.8709 15.4707 34.8358 15.6778C34.8006 15.8809 34.783 16.0977 34.783 16.3282ZM42.1905 10.5567V19.5567H40.21V10.5567H42.1905ZM45.7951 10.5567V19.5567H43.8147V10.5567H45.7951Z" fill="white"/>
<defs>
<linearGradient id="paint0_linear_104_27" x1="24.7074" y1="1.51101" x2="50.208" y2="34.3393" gradientUnits="userSpaceOnUse">
<stop stop-color="#AD0BF9"/>
<stop offset="1" stop-color="#05B4DB"/>
</linearGradient>
</defs>
</svg>
